<mxfile host="Electron" modified="2023-10-05T02:58:28.176Z" agent="Mozilla/5.0 (Windows NT 10.0; Win64; x64) AppleWebKit/537.36 (KHTML, like Gecko) draw.io/21.5.1 Chrome/112.0.5615.204 Electron/24.6.0 Safari/537.36" etag="ODomJ0hOkADu4amhCRP9" version="21.5.1" type="device">
  <diagram name="Page-1" id="tGzrl4vsufQCC5JKwG7Y">
    <mxGraphModel dx="648" dy="1862" grid="1" gridSize="10" guides="1" tooltips="1" connect="1" arrows="1" fold="1" page="1" pageScale="1" pageWidth="827" pageHeight="1169" math="0" shadow="0">
      <root>
        <mxCell id="0" />
        <mxCell id="1" parent="0" />
        <mxCell id="NJm4SAuS3VdC6HMSc0Oy-47" value="Returns Job&lt;br&gt;Result" style="edgeStyle=orthogonalEdgeStyle;rounded=0;orthogonalLoop=1;jettySize=auto;html=1;exitX=0.75;exitY=1;exitDx=0;exitDy=0;entryX=0.75;entryY=0;entryDx=0;entryDy=0;" edge="1" parent="1" source="NJm4SAuS3VdC6HMSc0Oy-44" target="NJm4SAuS3VdC6HMSc0Oy-3">
          <mxGeometry relative="1" as="geometry" />
        </mxCell>
        <mxCell id="NJm4SAuS3VdC6HMSc0Oy-44" value="Your Custom Job&amp;nbsp; &lt;font color=&quot;#00994d&quot;&gt;Worker&lt;/font&gt;&lt;br&gt;&lt;i&gt;Executes the job&lt;/i&gt;" style="fillColor=none;strokeColor=#000000;dashed=1;verticalAlign=top;fontStyle=1;fontColor=#000000;whiteSpace=wrap;html=1;fontSize=16;" vertex="1" parent="1">
          <mxGeometry x="340" y="-160" width="193" height="160" as="geometry" />
        </mxCell>
        <mxCell id="NJm4SAuS3VdC6HMSc0Oy-32" value="Production Stage&lt;br style=&quot;border-color: var(--border-color);&quot;&gt;&lt;font style=&quot;border-color: var(--border-color); font-size: 14px;&quot;&gt;&lt;i style=&quot;border-color: var(--border-color);&quot;&gt;Deploy Action&lt;/i&gt;&lt;/font&gt;&lt;br style=&quot;border-color: var(--border-color);&quot;&gt;&lt;font style=&quot;border-color: var(--border-color); font-size: 12px; font-weight: normal;&quot;&gt;Copy is released to production.&lt;/font&gt;" style="fillColor=none;strokeColor=#000000;dashed=1;verticalAlign=top;fontStyle=1;fontColor=#000000;whiteSpace=wrap;html=1;fontSize=16;" vertex="1" parent="1">
          <mxGeometry x="750" y="130" width="260" height="270" as="geometry" />
        </mxCell>
        <mxCell id="NJm4SAuS3VdC6HMSc0Oy-21" value="Deploy Stage&lt;br style=&quot;border-color: var(--border-color);&quot;&gt;&lt;font style=&quot;border-color: var(--border-color); font-size: 14px;&quot;&gt;&lt;i style=&quot;border-color: var(--border-color);&quot;&gt;Deploy Action&lt;br&gt;&lt;/i&gt;&lt;/font&gt;&lt;font style=&quot;font-size: 14px;&quot;&gt;&lt;i&gt;Test Action&lt;/i&gt;&lt;/font&gt;&lt;br style=&quot;border-color: var(--border-color);&quot;&gt;&lt;font style=&quot;border-color: var(--border-color); font-size: 12px; font-weight: normal;&quot;&gt;Code is deployed and tested.&lt;/font&gt;" style="fillColor=none;strokeColor=#000000;dashed=1;verticalAlign=top;fontStyle=1;fontColor=#000000;whiteSpace=wrap;html=1;fontSize=16;" vertex="1" parent="1">
          <mxGeometry x="550" y="130" width="180" height="270" as="geometry" />
        </mxCell>
        <mxCell id="NJm4SAuS3VdC6HMSc0Oy-1" value="Source Stage&lt;br&gt;&lt;font style=&quot;font-size: 14px;&quot;&gt;&lt;i&gt;Source Action&lt;/i&gt;&lt;/font&gt;&lt;br&gt;&lt;font style=&quot;font-size: 12px; font-weight: normal;&quot;&gt;Developers commit changes to source location.&lt;/font&gt;" style="fillColor=none;strokeColor=#000000;dashed=1;verticalAlign=top;fontStyle=1;fontColor=#000000;whiteSpace=wrap;html=1;fontSize=16;" vertex="1" parent="1">
          <mxGeometry x="140" y="130" width="180" height="270" as="geometry" />
        </mxCell>
        <mxCell id="NJm4SAuS3VdC6HMSc0Oy-46" value="Polls for Jobs" style="edgeStyle=orthogonalEdgeStyle;rounded=0;orthogonalLoop=1;jettySize=auto;html=1;exitX=0.25;exitY=1;exitDx=0;exitDy=0;entryX=0.25;entryY=0;entryDx=0;entryDy=0;" edge="1" parent="1" source="NJm4SAuS3VdC6HMSc0Oy-44" target="NJm4SAuS3VdC6HMSc0Oy-3">
          <mxGeometry relative="1" as="geometry" />
        </mxCell>
        <mxCell id="NJm4SAuS3VdC6HMSc0Oy-3" value="Build Stage&lt;br style=&quot;border-color: var(--border-color);&quot;&gt;&lt;font style=&quot;border-color: var(--border-color); font-size: 14px;&quot;&gt;&lt;i style=&quot;border-color: var(--border-color);&quot;&gt;Your Custom Build Action&lt;/i&gt;&lt;/font&gt;&lt;br style=&quot;border-color: var(--border-color);&quot;&gt;&lt;font style=&quot;border-color: var(--border-color); font-size: 12px; font-weight: normal;&quot;&gt;(Job Request &amp;gt;&amp;lt; Job Result)&lt;/font&gt;" style="fillColor=none;strokeColor=#000000;dashed=1;verticalAlign=top;fontStyle=1;fontColor=#000000;whiteSpace=wrap;html=1;fontSize=16;" vertex="1" parent="1">
          <mxGeometry x="340" y="130" width="193" height="270" as="geometry" />
        </mxCell>
        <mxCell id="NJm4SAuS3VdC6HMSc0Oy-4" value="AWS CodeCommit" style="sketch=0;points=[[0,0,0],[0.25,0,0],[0.5,0,0],[0.75,0,0],[1,0,0],[0,1,0],[0.25,1,0],[0.5,1,0],[0.75,1,0],[1,1,0],[0,0.25,0],[0,0.5,0],[0,0.75,0],[1,0.25,0],[1,0.5,0],[1,0.75,0]];outlineConnect=0;fontColor=#232F3E;gradientColor=#4D72F3;gradientDirection=north;fillColor=#3334B9;strokeColor=#ffffff;dashed=0;verticalLabelPosition=bottom;verticalAlign=top;align=center;html=1;fontSize=16;fontStyle=1;aspect=fixed;shape=mxgraph.aws4.resourceIcon;resIcon=mxgraph.aws4.codecommit;" vertex="1" parent="1">
          <mxGeometry x="191" y="233" width="78" height="78" as="geometry" />
        </mxCell>
        <mxCell id="NJm4SAuS3VdC6HMSc0Oy-5" value="AWS CodeBuild" style="sketch=0;points=[[0,0,0],[0.25,0,0],[0.5,0,0],[0.75,0,0],[1,0,0],[0,1,0],[0.25,1,0],[0.5,1,0],[0.75,1,0],[1,1,0],[0,0.25,0],[0,0.5,0],[0,0.75,0],[1,0.25,0],[1,0.5,0],[1,0.75,0]];outlineConnect=0;fontColor=#232F3E;gradientColor=#4D72F3;gradientDirection=north;fillColor=#3334B9;strokeColor=#ffffff;dashed=0;verticalLabelPosition=bottom;verticalAlign=top;align=center;html=1;fontSize=16;fontStyle=1;aspect=fixed;shape=mxgraph.aws4.resourceIcon;resIcon=mxgraph.aws4.codebuild;" vertex="1" parent="1">
          <mxGeometry x="397.5" y="233" width="78" height="78" as="geometry" />
        </mxCell>
        <mxCell id="NJm4SAuS3VdC6HMSc0Oy-6" value="Elastic Beanstalk" style="sketch=0;points=[[0,0,0],[0.25,0,0],[0.5,0,0],[0.75,0,0],[1,0,0],[0,1,0],[0.25,1,0],[0.5,1,0],[0.75,1,0],[1,1,0],[0,0.25,0],[0,0.5,0],[0,0.75,0],[1,0.25,0],[1,0.5,0],[1,0.75,0]];outlineConnect=0;fontColor=#232F3E;gradientColor=#F78E04;gradientDirection=north;fillColor=#D05C17;strokeColor=#ffffff;dashed=0;verticalLabelPosition=bottom;verticalAlign=top;align=center;html=1;fontSize=12;fontStyle=0;aspect=fixed;shape=mxgraph.aws4.resourceIcon;resIcon=mxgraph.aws4.elastic_beanstalk;" vertex="1" parent="1">
          <mxGeometry x="855" y="220" width="52" height="52" as="geometry" />
        </mxCell>
        <mxCell id="NJm4SAuS3VdC6HMSc0Oy-15" value="On-premise" style="sketch=0;pointerEvents=1;shadow=0;dashed=0;html=1;strokeColor=none;fillColor=#505050;labelPosition=center;verticalLabelPosition=bottom;verticalAlign=top;outlineConnect=0;align=center;shape=mxgraph.office.concepts.install;" vertex="1" parent="1">
          <mxGeometry x="900" y="310" width="50" height="52" as="geometry" />
        </mxCell>
        <mxCell id="NJm4SAuS3VdC6HMSc0Oy-28" value="" style="edgeStyle=none;orthogonalLoop=1;jettySize=auto;html=1;rounded=0;startArrow=baseDash;startFill=0;endArrow=baseDash;endFill=0;strokeWidth=6;endSize=50;startSize=50;" edge="1" parent="1">
          <mxGeometry width="100" relative="1" as="geometry">
            <mxPoint x="130" y="420" as="sourcePoint" />
            <mxPoint x="1020" y="420" as="targetPoint" />
            <Array as="points" />
          </mxGeometry>
        </mxCell>
        <mxCell id="NJm4SAuS3VdC6HMSc0Oy-29" value="AWS CodePipeline" style="sketch=0;points=[[0,0,0],[0.25,0,0],[0.5,0,0],[0.75,0,0],[1,0,0],[0,1,0],[0.25,1,0],[0.5,1,0],[0.75,1,0],[1,1,0],[0,0.25,0],[0,0.5,0],[0,0.75,0],[1,0.25,0],[1,0.5,0],[1,0.75,0]];outlineConnect=0;fontColor=#232F3E;gradientColor=#4D72F3;gradientDirection=north;fillColor=#3334B9;strokeColor=#ffffff;dashed=0;verticalLabelPosition=bottom;verticalAlign=top;align=center;html=1;fontSize=16;fontStyle=1;aspect=fixed;shape=mxgraph.aws4.resourceIcon;resIcon=mxgraph.aws4.codepipeline;" vertex="1" parent="1">
          <mxGeometry x="523" y="433" width="78" height="78" as="geometry" />
        </mxCell>
        <mxCell id="NJm4SAuS3VdC6HMSc0Oy-31" value="AWS CodeDeploy" style="sketch=0;points=[[0,0,0],[0.25,0,0],[0.5,0,0],[0.75,0,0],[1,0,0],[0,1,0],[0.25,1,0],[0.5,1,0],[0.75,1,0],[1,1,0],[0,0.25,0],[0,0.5,0],[0,0.75,0],[1,0.25,0],[1,0.5,0],[1,0.75,0]];outlineConnect=0;fontColor=#232F3E;gradientColor=#4D72F3;gradientDirection=north;fillColor=#3334B9;strokeColor=#ffffff;dashed=0;verticalLabelPosition=bottom;verticalAlign=top;align=center;html=1;fontSize=16;fontStyle=1;aspect=fixed;shape=mxgraph.aws4.resourceIcon;resIcon=mxgraph.aws4.codedeploy;" vertex="1" parent="1">
          <mxGeometry x="601" y="233" width="78" height="78" as="geometry" />
        </mxCell>
        <mxCell id="NJm4SAuS3VdC6HMSc0Oy-39" value="EC2" style="sketch=0;points=[[0,0,0],[0.25,0,0],[0.5,0,0],[0.75,0,0],[1,0,0],[0,1,0],[0.25,1,0],[0.5,1,0],[0.75,1,0],[1,1,0],[0,0.25,0],[0,0.5,0],[0,0.75,0],[1,0.25,0],[1,0.5,0],[1,0.75,0]];outlineConnect=0;fontColor=#232F3E;gradientColor=#F78E04;gradientDirection=north;fillColor=#D05C17;strokeColor=#ffffff;dashed=0;verticalLabelPosition=bottom;verticalAlign=top;align=center;html=1;fontSize=12;fontStyle=0;aspect=fixed;shape=mxgraph.aws4.resourceIcon;resIcon=mxgraph.aws4.ec2;" vertex="1" parent="1">
          <mxGeometry x="770" y="220" width="52" height="52" as="geometry" />
        </mxCell>
        <mxCell id="NJm4SAuS3VdC6HMSc0Oy-41" value="AWS Lambda" style="sketch=0;points=[[0,0,0],[0.25,0,0],[0.5,0,0],[0.75,0,0],[1,0,0],[0,1,0],[0.25,1,0],[0.5,1,0],[0.75,1,0],[1,1,0],[0,0.25,0],[0,0.5,0],[0,0.75,0],[1,0.25,0],[1,0.5,0],[1,0.75,0]];outlineConnect=0;fontColor=#232F3E;gradientColor=#F78E04;gradientDirection=north;fillColor=#D05C17;strokeColor=#ffffff;dashed=0;verticalLabelPosition=bottom;verticalAlign=top;align=center;html=1;fontSize=12;fontStyle=0;aspect=fixed;shape=mxgraph.aws4.resourceIcon;resIcon=mxgraph.aws4.lambda;" vertex="1" parent="1">
          <mxGeometry x="810" y="310" width="52" height="52" as="geometry" />
        </mxCell>
        <mxCell id="NJm4SAuS3VdC6HMSc0Oy-42" value="ECS" style="sketch=0;points=[[0,0,0],[0.25,0,0],[0.5,0,0],[0.75,0,0],[1,0,0],[0,1,0],[0.25,1,0],[0.5,1,0],[0.75,1,0],[1,1,0],[0,0.25,0],[0,0.5,0],[0,0.75,0],[1,0.25,0],[1,0.5,0],[1,0.75,0]];outlineConnect=0;fontColor=#232F3E;gradientColor=#F78E04;gradientDirection=north;fillColor=#D05C17;strokeColor=#ffffff;dashed=0;verticalLabelPosition=bottom;verticalAlign=top;align=center;html=1;fontSize=12;fontStyle=0;aspect=fixed;shape=mxgraph.aws4.resourceIcon;resIcon=mxgraph.aws4.ecs;" vertex="1" parent="1">
          <mxGeometry x="940" y="220" width="52" height="52" as="geometry" />
        </mxCell>
        <mxCell id="NJm4SAuS3VdC6HMSc0Oy-45" value="" style="outlineConnect=0;dashed=0;verticalLabelPosition=bottom;verticalAlign=top;align=center;html=1;shape=mxgraph.aws3.worker;fillColor=#D9A741;gradientColor=none;" vertex="1" parent="1">
          <mxGeometry x="406.5" y="-80" width="60" height="63" as="geometry" />
        </mxCell>
      </root>
    </mxGraphModel>
  </diagram>
</mxfile>
